<?xml version="1.0" encoding="UTF-8" standalone="no"?><!DOCTYPE svg PUBLIC "-//W3C//DTD SVG 1.1//EN" "http://www.w3.org/Graphics/SVG/1.1/DTD/svg11.dtd"><svg width="100%" height="100%" viewBox="0 0 542 271" version="1.1" xmlns="http://www.w3.org/2000/svg" xmlns:xlink="http://www.w3.org/1999/xlink" xml:space="preserve" xmlns:serif="http://www.serif.com/" style="fill-rule:evenodd;clip-rule:evenodd;stroke-linecap:round;stroke-linejoin:round;stroke-miterlimit:1.5;"><g><g><path d="M197.068,192.078l-53.815,64.513l208.075,-2.185l-41.997,-60.609l-31.045,-1.495l-9.927,17.901l-30.301,0.542l-11.224,-17.367l-29.766,-1.3Z" style="fill:#fdeecf;"/><path d="M229.441,197.698l-4.885,-9.51l-29.532,-0.372l-59.904,73.421l234.35,1l-58.313,-74.244l-30.377,-0.123l-5.892,9.832l32.387,0.026l39.23,53.953l-188.198,0.077l40.704,-54.14l30.43,0.08Z" style="fill:#cb6f01;"/><path d="M195.896,239.695l114.056,0.302l-4.166,-10.782l-105.093,-0.025l-4.797,10.505Z" style="fill:#cb6f01;"/><path d="M204.594,217.455l100.47,0.272l-3.67,-9.756l-92.574,-0.023l-4.226,9.507Z" style="fill:#cb6f01;"/><path d="M252.593,223.935c0,0 74.634,-103.272 73.104,-151.054c-1.061,-33.126 -30.184,-68.142 -71.459,-69.138c-43.774,-1.056 -74.759,37.541 -75.683,72.452c-1.176,44.453 74.038,147.74 74.038,147.74Z" style="fill:url(#_Linear1);stroke:#216b8b;stroke-width:4.17px;"/><circle cx="251.766" cy="78.212" r="58.905" style="fill:#fdeecf;"/></g></g><g><path d="M5.551,36.916l11.279,0l0,44.275l26.734,0l0,9.705l-38.013,0l0,-53.98Z" style="fill:#216b8b;fill-rule:nonzero;"/><path d="M72.531,71.486c-0.659,0.415 -1.324,0.751 -1.996,1.008c-0.671,0.256 -1.593,0.494 -2.765,0.714l-2.344,0.439c-2.197,0.391 -3.771,0.867 -4.724,1.428c-1.611,0.952 -2.417,2.429 -2.417,4.431c0,1.783 0.495,3.071 1.484,3.864c0.988,0.793 2.191,1.19 3.607,1.19c2.246,0 4.315,-0.659 6.207,-1.977c1.892,-1.319 2.875,-3.724 2.948,-7.215l0,-3.882Zm-6.335,-4.87c1.928,-0.244 3.308,-0.549 4.138,-0.916c1.489,-0.634 2.234,-1.623 2.234,-2.966c0,-1.636 -0.568,-2.765 -1.703,-3.387c-1.136,-0.623 -2.802,-0.934 -4.999,-0.934c-2.466,0 -4.211,0.61 -5.237,1.831c-0.732,0.903 -1.221,2.124 -1.465,3.662l-10.071,0c0.22,-3.491 1.197,-6.36 2.93,-8.606c2.759,-3.516 7.495,-5.274 14.209,-5.274c4.37,0 8.252,0.867 11.646,2.601c3.393,1.733 5.09,5.004 5.09,9.814l0,18.311c0,1.269 0.024,2.807 0.073,4.614c0.073,1.367 0.281,2.295 0.623,2.783c0.342,0.488 0.854,0.891 1.538,1.209l0,1.538l-11.353,0c-0.317,-0.806 -0.537,-1.563 -0.659,-2.271c-0.122,-0.708 -0.22,-1.514 -0.293,-2.417c-1.44,1.563 -3.1,2.893 -4.98,3.992c-2.246,1.294 -4.785,1.941 -7.617,1.941c-3.614,0 -6.598,-1.032 -8.954,-3.095c-2.356,-2.063 -3.534,-4.986 -3.534,-8.771c0,-4.907 1.892,-8.459 5.676,-10.656c2.075,-1.197 5.127,-2.051 9.155,-2.564l3.553,-0.439Z" style="fill:#216b8b;fill-rule:nonzero;"/><path d="M114.352,50.026c4.126,0 7.501,1.081 10.126,3.241c2.625,2.161 3.937,5.744 3.937,10.749l0,26.88l-10.694,0l0,-24.28c0,-2.1 -0.28,-3.711 -0.842,-4.834c-1.025,-2.051 -2.978,-3.076 -5.859,-3.076c-3.54,0 -5.97,1.501 -7.288,4.504c-0.683,1.587 -1.025,3.613 -1.025,6.079l0,21.607l-10.401,0l0,-39.844l10.071,0l0,5.823c1.343,-2.051 2.612,-3.528 3.809,-4.432c2.148,-1.611 4.87,-2.417 8.166,-2.417Z" style="fill:#216b8b;fill-rule:nonzero;"/><path d="M152.768,50.026c2.417,0 4.565,0.531 6.445,1.593c1.88,1.062 3.406,2.533 4.578,4.413l0,-19.043l10.583,0l0,53.907l-10.144,0l0,-5.53c-1.489,2.368 -3.186,4.089 -5.09,5.163c-1.904,1.075 -4.273,1.612 -7.105,1.612c-4.663,0 -8.587,-1.886 -11.773,-5.658c-3.186,-3.772 -4.779,-8.612 -4.779,-14.521c0,-6.811 1.568,-12.17 4.705,-16.076c3.138,-3.906 7.331,-5.86 12.58,-5.86Zm2.27,33.326c2.954,0 5.2,-1.099 6.739,-3.296c1.538,-2.198 2.307,-5.042 2.307,-8.533c0,-4.883 -1.233,-8.374 -3.699,-10.474c-1.514,-1.269 -3.272,-1.904 -5.273,-1.904c-3.052,0 -5.292,1.154 -6.72,3.461c-1.429,2.307 -2.143,5.169 -2.143,8.587c0,3.687 0.727,6.635 2.179,8.844c1.453,2.21 3.656,3.315 6.61,3.315Z" style="fill:#216b8b;fill-rule:nonzero;"/></g><g><path d="M280.857,60.675c3.108,0 6.173,0.605 9.195,1.814c3.023,1.209 5.764,3.324 8.225,6.346c1.986,2.461 3.324,5.483 4.015,9.066c0.432,2.375 0.648,5.85 0.648,10.427l-0.13,44.489l-18.91,0l0,-44.943c0,-2.676 -0.431,-4.878 -1.295,-6.605c-1.64,-3.281 -4.663,-4.922 -9.066,-4.922c-5.095,0 -8.613,2.116 -10.556,6.347c-0.993,2.245 -1.489,4.943 -1.489,8.095l0,42.028l-18.586,0l0,-42.028c0,-4.188 -0.432,-7.232 -1.295,-9.132c-1.555,-3.41 -4.598,-5.116 -9.132,-5.116c-5.267,0 -8.807,1.706 -10.62,5.116c-0.993,1.943 -1.49,4.836 -1.49,8.678l0,42.482l-18.715,0l0,-70.458l17.938,0l0,10.297c2.289,-3.67 4.447,-6.282 6.476,-7.836c3.584,-2.763 8.225,-4.145 13.924,-4.145c5.396,0 9.757,1.188 13.081,3.562c2.677,2.202 4.706,5.03 6.087,8.484c2.418,-4.145 5.418,-7.189 9.002,-9.131c3.799,-1.943 8.03,-2.915 12.693,-2.915Z" style="fill:#064661;fill-rule:nonzero;"/><path d="M371.327,98.495c-1.166,0.734 -2.342,1.327 -3.53,1.781c-1.187,0.453 -2.817,0.874 -4.889,1.263l-4.144,0.777c-3.886,0.69 -6.671,1.532 -8.354,2.525c-2.85,1.684 -4.275,4.296 -4.275,7.836c0,3.152 0.875,5.429 2.623,6.832c1.749,1.403 3.875,2.105 6.379,2.105c3.972,0 7.631,-1.166 10.977,-3.497c3.346,-2.331 5.083,-6.584 5.213,-12.758l0,-6.864Zm-11.204,-8.613c3.411,-0.432 5.85,-0.971 7.318,-1.619c2.634,-1.123 3.951,-2.871 3.951,-5.246c0,-2.892 -1.004,-4.889 -3.012,-5.99c-2.007,-1.101 -4.954,-1.651 -8.839,-1.651c-4.361,0 -7.448,1.079 -9.261,3.238c-1.295,1.597 -2.159,3.756 -2.59,6.476l-17.809,0c0.388,-6.174 2.115,-11.247 5.181,-15.219c4.878,-6.217 13.254,-9.325 25.126,-9.325c7.728,0 14.593,1.533 20.594,4.598c6.001,3.065 9.001,8.85 9.001,17.355l0,32.38c0,2.245 0.043,4.965 0.13,8.16c0.129,2.417 0.496,4.058 1.101,4.921c0.604,0.864 1.511,1.576 2.72,2.137l0,2.72l-20.076,0c-0.561,-1.424 -0.95,-2.763 -1.165,-4.015c-0.216,-1.252 -0.389,-2.676 -0.519,-4.274c-2.547,2.763 -5.483,5.116 -8.807,7.059c-3.972,2.288 -8.462,3.432 -13.47,3.432c-6.389,0 -11.667,-1.824 -15.833,-5.472c-4.167,-3.648 -6.25,-8.818 -6.25,-15.51c0,-8.678 3.346,-14.959 10.038,-18.845c3.67,-2.115 9.066,-3.626 16.19,-4.533l6.281,-0.777Z" style="fill:#064661;fill-rule:nonzero;"/><path d="M452.838,60.546c0.346,0 0.637,0.011 0.874,0.032c0.238,0.022 0.767,0.054 1.587,0.097l0,18.91c-1.166,-0.129 -2.202,-0.216 -3.108,-0.259c-0.907,-0.043 -1.641,-0.065 -2.202,-0.065c-7.426,0 -12.412,2.418 -14.96,7.253c-1.424,2.72 -2.137,6.908 -2.137,12.564l0,33.739l-18.586,0l0,-70.587l17.615,0l0,12.304c2.849,-4.706 5.332,-7.922 7.447,-9.649c3.454,-2.893 7.944,-4.339 13.47,-4.339Z" style="fill:#064661;fill-rule:nonzero;"/><path d="M474.253,37.686l18.133,0l0,51.419l22.989,-26.552l22.86,0l-24.673,27.005l25.644,43.259l-22.277,0l-16.902,-30.178l-7.641,7.966l0,22.212l-18.133,0l0,-95.131Z" style="fill:#064661;fill-rule:nonzero;"/></g><g><path d="M124.824,136.872l0,14.502l12.781,0c2.539,0 4.444,-0.293 5.713,-0.879c2.246,-1.026 3.369,-3.052 3.369,-6.079c0,-3.272 -1.086,-5.469 -3.259,-6.592c-1.221,-0.635 -3.052,-0.952 -5.493,-0.952l-13.111,0Zm15.455,-9.375c3.784,0.073 6.695,0.537 8.734,1.391c2.038,0.855 3.766,2.112 5.182,3.772c1.171,1.367 2.099,2.881 2.783,4.541c0.683,1.66 1.025,3.552 1.025,5.676c0,2.564 -0.647,5.085 -1.941,7.563c-1.294,2.478 -3.43,4.229 -6.408,5.255c2.49,1.001 4.254,2.423 5.291,4.266c1.038,1.843 1.557,4.657 1.557,8.441l0,3.626c0,2.466 0.097,4.138 0.293,5.017c0.293,1.392 0.976,2.417 2.05,3.076l0,1.355l-12.414,0c-0.342,-1.196 -0.586,-2.161 -0.733,-2.893c-0.293,-1.514 -0.451,-3.064 -0.476,-4.651l-0.073,-5.017c-0.049,-3.442 -0.677,-5.737 -1.886,-6.885c-1.208,-1.147 -3.473,-1.721 -6.793,-1.721l-11.646,0l0,21.167l-11.023,0l0,-53.979l26.478,0Z" style="fill:#216b8b;fill-rule:nonzero;"/><path d="M182.612,149.103c-2.416,0 -4.29,0.757 -5.621,2.271c-1.33,1.513 -2.167,3.564 -2.508,6.152l16.223,0c-0.171,-2.759 -1.007,-4.852 -2.509,-6.281c-1.501,-1.428 -3.363,-2.142 -5.585,-2.142Zm0,-8.606c3.321,0 6.312,0.623 8.973,1.868c2.661,1.245 4.858,3.21 6.591,5.896c1.563,2.368 2.576,5.115 3.04,8.24c0.269,1.831 0.378,4.467 0.33,7.91l-27.32,0c0.147,4.004 1.404,6.811 3.772,8.423c1.441,1.001 3.174,1.501 5.2,1.501c2.149,0 3.894,-0.61 5.237,-1.831c0.733,-0.659 1.38,-1.575 1.941,-2.747l10.657,0c-0.269,2.369 -1.502,4.773 -3.699,7.215c-3.418,3.882 -8.203,5.822 -14.355,5.822c-5.078,0 -9.558,-1.635 -13.44,-4.907c-3.882,-3.271 -5.823,-8.594 -5.823,-15.967c0,-6.909 1.752,-12.207 5.255,-15.893c3.504,-3.687 8.051,-5.53 13.641,-5.53Z" style="fill:#216b8b;fill-rule:nonzero;"/></g><defs><linearGradient id="_Linear1" x1="0" y1="0" x2="1" y2="0" gradientUnits="userSpaceOnUse" gradientTransform="matrix(-1.40008,-177.557,177.557,-1.40008,257.089,194.312)"><stop offset="0" style="stop-color:#00a9c8;stop-opacity:1"/><stop offset="1" style="stop-color:#3cffbf;stop-opacity:1"/></linearGradient></defs></svg>